<?xml version="1.0" standalone="no"?>
<!DOCTYPE svg PUBLIC "-//W3C//DTD SVG 20010904//EN"
 "http://www.w3.org/TR/2001/REC-SVG-20010904/DTD/svg10.dtd">
<svg version="1.0" xmlns="http://www.w3.org/2000/svg"
 width="512.000000pt" height="512.000000pt" viewBox="0 0 512.000000 512.000000"
 preserveAspectRatio="xMidYMid meet">
<metadata>
Created by potrace 1.14, written by Peter Selinger 2001-2017
</metadata>
<g transform="translate(0.000000,512.000000) scale(0.100000,-0.100000)"
fill="#000000" stroke="none">
<path d="M1770 4575 c0 -8 5 -15 10 -15 18 0 11 -45 -10 -63 -25 -21 -40 -22
-40 -1 0 11 -8 14 -27 12 -17 -2 -27 -8 -25 -17 1 -7 -8 -27 -21 -45 -13 -17
-26 -36 -28 -42 -8 -21 -116 -134 -128 -134 -7 0 -27 -11 -45 -25 -18 -14 -36
-25 -40 -25 -4 0 -20 -13 -36 -30 -16 -16 -36 -30 -43 -30 -8 0 -20 -7 -27
-15 -7 -8 -19 -15 -26 -15 -8 0 -19 -9 -26 -20 -7 -11 -20 -20 -29 -20 -9 0
-24 -9 -34 -20 -10 -11 -22 -20 -27 -20 -5 0 -40 -18 -78 -40 -38 -22 -77 -40
-87 -40 -10 0 -30 -7 -45 -14 -16 -8 -48 -18 -73 -22 -25 -3 -48 -10 -51 -15
-3 -5 -12 -9 -20 -9 -8 0 -25 -9 -36 -20 -21 -20 -77 -40 -109 -40 -19 0 -79
-64 -79 -84 0 -8 -7 -19 -15 -26 -19 -16 -20 -118 -1 -145 7 -11 17 -36 21
-55 4 -19 12 -40 17 -47 5 -6 8 -17 7 -25 -3 -15 6 -42 28 -83 23 -45 40 -303
26 -413 -6 -47 -16 -88 -22 -90 -6 -2 -11 -13 -11 -23 0 -25 -15 -53 -51 -100
-16 -20 -29 -42 -29 -49 0 -6 -16 -30 -35 -53 -19 -22 -35 -45 -35 -50 0 -6
-15 -28 -33 -51 -19 -23 -39 -51 -46 -63 -6 -13 -18 -23 -27 -23 -8 0 -24 -16
-35 -35 -19 -32 -24 -35 -55 -29 -22 4 -34 2 -34 -5 0 -6 -9 -11 -20 -11 -16
0 -20 -7 -20 -30 0 -25 4 -30 25 -30 16 0 25 -6 25 -15 0 -8 5 -15 10 -15 6 0
8 -11 4 -25 -4 -17 -2 -25 7 -25 10 0 10 -3 1 -12 -16 -16 -16 -48 0 -48 9 0
9 -3 0 -12 -20 -20 -14 -38 14 -38 15 0 39 -13 57 -30 39 -37 133 -110 141
-110 6 0 14 -6 91 -73 28 -24 77 -62 110 -84 33 -22 89 -69 125 -103 109 -105
346 -284 472 -356 10 -6 49 -41 85 -78 36 -36 69 -66 73 -66 3 0 25 -16 47
-35 23 -19 44 -35 47 -35 6 0 86 -50 96 -60 13 -13 217 -111 231 -110 20 0 42
25 58 66 7 18 26 44 42 60 51 49 36 124 -25 124 -9 0 -22 -12 -30 -27 -8 -16
-30 -45 -48 -66 l-33 -39 -80 49 c-130 80 -163 104 -180 129 -12 18 -24 24
-53 24 -31 0 -41 6 -61 35 -28 41 -189 166 -242 188 -48 20 -132 85 -268 208
-63 57 -131 118 -152 134 -21 17 -73 59 -116 95 -43 35 -103 84 -133 109 -30
24 -77 63 -103 87 l-48 43 26 18 c37 26 189 181 230 233 19 25 38 61 41 80 4
19 11 40 16 47 5 6 8 17 7 25 -2 12 11 49 32 90 5 9 14 59 21 110 6 51 16 96
20 99 13 9 12 273 -1 277 -6 2 -11 29 -11 60 -1 77 -22 216 -36 233 -6 8 -14
27 -18 43 -5 22 5 12 46 -42 30 -40 81 -95 114 -124 66 -57 223 -198 346 -310
42 -38 105 -90 141 -116 75 -54 218 -167 289 -229 26 -23 74 -61 105 -84 32
-24 60 -46 61 -51 2 -4 8 -8 14 -8 23 0 68 -56 68 -84 0 -21 15 -46 52 -89 66
-76 104 -181 114 -317 10 -132 35 -167 84 -115 21 22 23 34 24 124 1 68 -3
104 -12 113 -6 6 -12 18 -12 25 0 7 -9 32 -19 56 -11 23 -23 53 -27 67 -7 24
-50 82 -107 143 l-28 30 33 14 c18 8 64 23 102 33 75 21 192 92 202 123 3 11
-1 26 -12 38 -22 24 -46 20 -110 -21 -33 -21 -54 -27 -73 -24 -19 4 -39 -2
-65 -19 -20 -14 -54 -31 -74 -38 -20 -6 -45 -19 -55 -28 -17 -14 -19 -14 -28
2 -6 9 -15 17 -21 17 -11 0 -145 119 -254 226 -35 34 -70 64 -78 67 -9 4 -16
15 -16 25 0 20 -72 95 -87 90 -5 -2 -61 45 -123 105 -63 59 -120 107 -127 107
-7 0 -13 7 -13 15 0 8 -17 34 -37 56 -21 23 -37 44 -35 46 8 11 -37 57 -73 74
-24 11 -53 31 -65 45 -13 13 -30 24 -37 24 -8 0 -16 7 -19 15 -4 8 -12 15 -20
15 -8 0 -14 5 -14 10 0 6 -18 30 -41 53 -22 23 -45 52 -50 65 -5 12 -20 27
-34 34 -14 6 -25 15 -25 20 0 13 40 9 77 -9 27 -12 40 -14 53 -5 10 6 35 14
56 18 22 4 55 15 74 25 19 11 43 19 52 19 10 0 18 4 18 9 0 5 15 13 33 16 17
4 39 13 47 20 8 7 25 16 38 19 12 4 22 12 22 17 0 5 8 9 18 9 10 0 29 11 42
25 13 14 30 25 37 25 8 0 16 7 19 15 4 8 11 15 16 15 5 0 57 44 114 98 58 53
110 99 117 101 16 5 107 93 107 104 0 11 91 117 101 117 4 0 33 -44 65 -97 85
-144 150 -240 214 -315 37 -42 69 -93 89 -142 34 -81 66 -139 132 -238 22 -34
47 -75 56 -92 9 -17 33 -54 55 -82 35 -47 43 -52 78 -52 22 0 42 4 46 9 7 12
-45 119 -58 119 -4 0 -8 10 -8 23 0 12 -8 27 -19 34 -10 6 -35 47 -56 90 -85
179 -139 283 -152 292 -19 14 -63 81 -63 95 0 9 -4 16 -10 16 -5 0 -10 6 -10
13 0 8 -9 22 -20 32 -11 10 -20 24 -20 32 0 8 -11 29 -25 47 -14 18 -25 36
-25 39 0 4 -7 15 -15 25 -48 54 -125 150 -125 156 0 3 -14 25 -31 48 -17 25
-28 50 -25 61 2 10 -2 21 -10 24 -9 3 -14 21 -14 54 0 48 -1 49 -30 49 -20 0
-30 -5 -30 -15z m-1127 -991 c-7 -18 -9 -16 -17 21 -6 28 -5 29 8 12 8 -11 12
-25 9 -33z"/>
<path d="M2935 3499 c-8 -37 -79 -142 -113 -170 -14 -10 -35 -19 -48 -19 -12
0 -25 -4 -28 -8 -3 -5 -51 -14 -108 -21 -57 -7 -112 -16 -123 -21 -11 -4 -47
-13 -80 -20 -67 -14 -97 -31 -138 -77 -16 -18 -34 -33 -41 -33 -7 0 -27 -16
-46 -35 -19 -19 -30 -35 -26 -35 5 0 -4 -16 -19 -36 -23 -30 -26 -40 -17 -57
6 -12 14 -36 17 -53 7 -34 25 -44 82 -44 17 0 35 -4 38 -10 3 -5 47 -10 97
-10 85 0 136 -9 180 -31 10 -5 26 -9 36 -9 20 0 132 -81 166 -119 11 -11 23
-21 28 -21 4 0 33 -20 64 -45 30 -25 60 -45 66 -45 6 0 29 -15 52 -33 23 -18
67 -45 99 -61 54 -27 79 -46 60 -46 -4 0 -26 -16 -48 -35 -22 -19 -46 -35 -53
-35 -7 0 -15 -7 -18 -15 -4 -8 -12 -15 -20 -15 -7 0 -29 -13 -47 -30 -19 -16
-39 -30 -45 -30 -6 0 -12 -6 -15 -12 -7 -20 -17 -4 -22 35 -5 40 -56 121 -88
141 -12 7 -50 23 -85 36 -69 25 -115 65 -168 147 -19 28 -46 58 -60 65 -14 7
-33 26 -42 42 -10 16 -25 38 -34 48 -22 22 -68 24 -68 3 0 -8 4 -15 8 -15 10
0 72 -93 72 -106 0 -21 56 -113 98 -163 52 -61 86 -84 157 -107 39 -13 66 -33
123 -92 50 -52 69 -78 60 -82 -17 -6 -112 -82 -116 -92 -2 -5 -8 -8 -14 -8 -6
0 -37 -24 -71 -52 -55 -49 -80 -66 -147 -100 -14 -7 -36 -20 -49 -30 -13 -10
-32 -18 -42 -18 -11 0 -19 -6 -19 -14 0 -20 -19 -25 -55 -14 -16 4 -42 8 -57
8 -16 0 -28 4 -28 9 0 5 -30 13 -67 17 -38 3 -70 10 -73 13 -3 4 -41 13 -84
19 -44 7 -85 17 -92 23 -22 18 -69 7 -72 -17 -3 -21 40 -62 81 -77 9 -3 17
-11 17 -17 0 -5 5 -10 11 -10 6 0 22 -9 36 -20 14 -11 32 -20 40 -20 8 0 26
-9 40 -20 14 -11 40 -22 59 -26 19 -3 34 -9 34 -13 0 -7 -38 -24 -110 -50 -25
-9 -54 -21 -65 -27 -11 -7 -45 -15 -75 -19 -75 -9 -110 -25 -110 -50 0 -12 5
-26 12 -33 14 -14 144 -17 152 -3 4 5 30 12 59 16 28 4 60 11 69 16 41 22 25
-16 -31 -75 -34 -34 -61 -66 -61 -70 0 -4 -12 -18 -26 -31 -15 -14 -24 -25
-20 -25 3 0 -1 -11 -10 -25 -10 -16 -14 -34 -10 -50 7 -29 19 -31 44 -10 88
77 138 115 152 115 9 0 25 9 35 20 10 11 24 20 32 20 7 0 22 5 33 12 24 15 35
6 21 -19 -5 -10 -17 -49 -25 -88 -9 -38 -18 -80 -22 -92 -4 -16 -1 -23 15 -28
41 -13 136 65 227 186 168 225 187 247 231 255 33 6 43 19 21 27 -7 2 27 33
77 68 49 35 126 99 171 142 l81 77 35 -33 c28 -26 35 -39 31 -60 -4 -21 5 -36
48 -82 116 -123 259 -184 476 -204 232 -21 301 -13 329 40 18 36 24 36 55 2
14 -16 42 -43 64 -61 l40 -32 -43 0 c-23 0 -42 -4 -42 -9 0 -5 -18 -12 -39
-16 -22 -3 -47 -13 -58 -20 -10 -8 -31 -15 -46 -15 -15 0 -30 -6 -33 -14 -3
-7 -30 -19 -60 -26 -29 -7 -54 -16 -54 -20 0 -3 -17 -12 -37 -19 -21 -8 -40
-17 -43 -20 -7 -8 -78 -53 -112 -70 -16 -8 -28 -18 -28 -22 0 -4 -24 -24 -52
-45 -29 -21 -54 -42 -56 -46 -2 -5 -9 -8 -17 -8 -14 0 -95 -84 -95 -100 0 -5
-7 -10 -15 -10 -10 0 -15 -10 -15 -26 0 -24 3 -26 31 -20 17 3 56 28 87 56 31
27 61 50 68 50 6 0 31 16 55 35 24 19 47 35 52 35 9 0 90 51 98 62 3 4 27 12
55 17 27 5 63 17 79 25 17 9 44 19 62 22 18 3 37 12 44 20 6 8 21 14 33 13 14
0 16 -2 6 -6 -8 -3 -22 -14 -33 -23 -10 -10 -35 -26 -55 -36 -20 -11 -80 -58
-134 -106 -53 -49 -101 -88 -107 -88 -6 0 -11 -6 -11 -13 0 -16 -42 -57 -58
-57 -7 0 -12 -7 -12 -16 0 -9 -9 -18 -20 -21 -11 -3 -20 -10 -20 -15 0 -6 -20
-33 -45 -60 -46 -52 -58 -94 -30 -105 10 -3 33 12 65 46 27 28 53 51 59 51 5
0 13 9 16 20 3 11 12 20 20 20 7 0 55 40 107 90 51 49 99 90 107 90 8 0 33 18
57 40 24 22 48 40 54 40 5 0 30 15 55 34 24 19 59 37 77 41 18 3 43 11 55 17
48 24 32 -4 -46 -80 -44 -44 -81 -85 -81 -91 0 -7 -17 -30 -38 -50 -23 -23
-59 -81 -91 -147 -77 -161 -79 -164 -92 -229 -7 -33 -16 -64 -21 -69 -15 -18
-9 -46 11 -46 19 0 91 79 91 99 0 6 5 11 10 11 6 0 10 6 10 14 0 7 7 19 15 26
8 7 13 16 10 20 -5 9 23 68 41 85 5 5 22 28 37 51 15 22 41 53 57 69 17 16 30
33 30 38 0 12 195 207 207 207 5 0 22 13 38 30 16 16 32 30 37 30 17 0 -23
-114 -45 -131 -11 -8 -33 -237 -24 -246 11 -11 41 11 45 33 2 10 17 31 33 46
16 15 29 33 29 41 0 8 9 22 20 32 11 10 20 22 20 26 0 13 58 95 85 120 13 13
25 30 25 36 0 23 122 133 146 133 13 0 27 6 31 14 4 8 17 16 28 18 19 3 20 11
18 177 -1 97 -6 177 -11 180 -5 3 -13 25 -17 48 -3 23 -13 44 -21 47 -9 3 -13
9 -10 14 2 4 -2 32 -10 62 -19 74 -18 90 6 90 25 0 27 34 5 76 -8 16 -17 48
-21 71 -3 24 -10 43 -15 43 -5 0 -9 14 -9 31 0 17 -9 42 -20 56 -11 15 -20 41
-20 61 0 41 -31 112 -130 300 -30 56 -95 109 -160 130 -20 7 -78 11 -131 11
-52 -1 -104 3 -115 9 -10 5 -45 22 -77 37 -31 15 -60 32 -63 36 -3 5 -14 9
-24 9 -10 0 -39 17 -63 38 -24 20 -58 48 -75 62 -17 14 -31 31 -32 38 0 6 -9
12 -20 12 -11 0 -37 15 -57 33 -49 42 -84 57 -136 57 -32 1 -50 8 -77 30 -19
17 -44 30 -56 30 -22 0 -54 28 -54 48 0 7 -9 17 -20 24 -11 7 -20 18 -20 24 0
14 -43 54 -59 54 -7 0 -40 25 -74 54 -43 38 -73 57 -99 61 -21 4 -38 11 -38
16 0 5 -13 9 -29 9 -25 0 -30 -5 -36 -31z m265 -282 c0 -12 -9 -40 -19 -60
-11 -21 -22 -60 -26 -87 -5 -36 -11 -50 -22 -50 -23 0 -10 106 19 171 24 52
48 65 48 26z m112 -132 l3 -99 -28 -14 c-15 -7 -39 -12 -53 -10 l-26 3 20 25
c21 28 42 110 42 169 0 44 9 57 26 39 8 -8 14 -51 16 -113z m241 -335 c22 -44
25 -59 17 -75 -6 -12 -15 -47 -19 -80 -7 -47 -14 -63 -36 -81 -16 -13 -31 -22
-34 -22 -3 1 -14 -2 -24 -7 -10 -4 -23 -2 -32 5 -8 7 -15 9 -15 5 0 -14 -30
17 -45 48 -16 33 -21 122 -6 131 5 4 12 24 16 46 4 22 11 40 16 40 5 0 9 7 9
15 0 21 36 35 85 32 38 -2 42 -5 68 -57z m367 -328 c0 -5 42 -13 93 -19 50 -6
106 -18 122 -26 30 -15 86 -40 115 -52 8 -3 33 -16 55 -29 22 -14 86 -48 143
-76 70 -35 102 -57 101 -68 0 -10 -3 -12 -5 -5 -3 6 -40 26 -82 43 -42 18 -82
36 -88 41 -6 5 -39 15 -75 23 -35 8 -122 32 -194 54 -71 21 -136 41 -144 43
-9 3 -29 -21 -54 -66 -36 -64 -40 -78 -45 -160 -4 -90 0 -110 52 -250 7 -17 5
-17 -13 4 -12 13 -21 31 -21 42 0 10 -5 21 -10 24 -6 4 -8 11 -4 16 3 5 1 15
-4 22 -5 7 -13 30 -17 52 -4 22 -12 46 -18 54 -17 20 -15 233 1 239 7 2 12 10
12 18 0 8 7 30 14 49 12 27 21 35 40 35 15 0 26 -4 26 -8z m-560 -78 c14 -6
41 -15 60 -19 19 -4 44 -13 55 -20 11 -7 35 -16 53 -20 17 -4 32 -11 32 -16 0
-5 8 -9 18 -9 9 0 29 -7 45 -15 15 -8 54 -17 86 -21 l58 -6 6 -67 c3 -36 13
-79 21 -96 9 -16 16 -41 16 -55 0 -14 6 -37 14 -51 7 -14 16 -42 20 -61 4 -22
25 -55 56 -89 l50 -54 -28 -8 c-62 -18 -187 -19 -267 -4 -44 9 -114 21 -154
27 -41 6 -94 19 -118 30 -72 32 -207 152 -226 200 -4 12 -6 11 -6 -2 -1 -10
-6 -18 -13 -18 -6 0 -8 3 -5 7 9 9 -43 63 -60 63 -24 0 -3 20 68 66 37 24 71
49 75 55 3 6 1 30 -6 55 -9 32 -18 44 -31 44 -11 0 -19 -7 -19 -15 0 -8 -5
-15 -11 -15 -21 0 -136 -95 -229 -189 -52 -53 -151 -139 -219 -191 -76 -58
-145 -121 -178 -161 -29 -36 -53 -69 -53 -73 0 -4 -20 -32 -45 -63 -25 -30
-45 -59 -45 -64 0 -5 -7 -9 -15 -9 -8 0 -15 -8 -15 -17 0 -10 -16 -36 -35 -58
-31 -36 -34 -38 -35 -17 0 12 5 22 11 22 6 0 9 12 8 28 -1 15 7 47 19 71 27
55 27 61 2 61 -32 0 -23 13 28 40 26 14 83 61 128 105 44 44 115 107 158 140
43 33 105 86 138 117 57 56 257 211 328 255 19 12 66 53 103 92 l69 69 31 -16
c18 -8 43 -21 57 -28z m1036 -349 c34 -19 72 -35 84 -35 25 0 95 -36 122 -62
10 -10 24 -18 32 -18 10 0 17 -16 22 -47 4 -27 11 -50 15 -53 5 -3 11 -71 13
-150 3 -86 2 -127 -3 -100 -37 215 -51 251 -108 295 -52 40 -98 58 -206 81
-73 15 -80 19 -113 63 l-36 46 24 6 c53 15 92 9 154 -26z m-2376 -85 c0 -5 17
-10 38 -11 l37 -1 -33 -8 c-20 -5 -42 -3 -57 4 -30 13 -32 26 -5 26 11 0 20
-4 20 -10z m147 -96 c-3 -3 -12 -4 -19 -1 -8 3 -5 6 6 6 11 1 17 -2 13 -5z
m-47 -144 c0 -5 -9 -10 -19 -10 -11 0 -23 -4 -26 -10 -8 -12 -55 -13 -55 -1 0
5 17 13 38 19 50 13 62 14 62 2z m30 -140 c0 -5 7 -10 16 -10 26 0 10 -24 -22
-32 -17 -4 -39 -17 -49 -28 -19 -21 -45 -27 -45 -11 0 12 80 91 92 91 4 0 8
-4 8 -10z m65 0 c-3 -5 -11 -10 -16 -10 -6 0 -7 5 -4 10 3 6 11 10 16 10 6 0
7 -4 4 -10z m2415 -55 c0 -9 -64 -64 -75 -65 -14 0 -75 -62 -75 -77 0 -7 -20
-36 -45 -65 -64 -74 -65 -76 -66 -90 0 -10 -2 -10 -6 -1 -8 20 58 132 106 180
69 69 161 136 161 118z m-505 -25 c-28 -12 -47 -12 -40 0 3 6 18 10 33 9 24 0
25 -1 7 -9z m-380 -20 c3 -5 1 -10 -4 -10 -6 0 -11 5 -11 10 0 6 2 10 4 10 3
0 8 -4 11 -10z m-95 -63 c0 -13 -73 -67 -91 -67 -23 0 -5 31 25 44 18 8 37 19
40 25 10 15 26 14 26 -2z m227 -73 c-15 -13 -34 -24 -42 -24 -8 0 -19 -9 -25
-20 -6 -11 -18 -20 -28 -20 -11 1 3 19 42 56 43 39 63 51 70 43 8 -7 3 -17
-17 -35z m433 -198 c0 -14 -4 -28 -10 -31 -6 -4 -10 7 -10 24 0 17 5 31 10 31
6 0 10 -11 10 -24z m-437 -140 c6 -15 -67 -169 -75 -160 -10 9 50 174 63 174
4 0 9 -6 12 -14z"/>
<path d="M3439 2724 c-6 -8 -14 -43 -17 -79 -5 -72 5 -95 43 -95 19 0 25 8 34
48 11 45 9 101 -3 121 -10 16 -45 19 -57 5z m45 -26 c9 -34 7 -101 -3 -117 -5
-8 -16 -11 -25 -8 -19 8 -22 68 -5 116 13 37 24 40 33 9z"/>
<path d="M1400 3096 c0 -2 7 -9 15 -16 9 -7 15 -8 15 -2 0 5 -7 12 -15 16 -8
3 -15 4 -15 2z"/>
</g>
</svg>
